# AST/ASF file generated using VICON BodyLanguage
# -----------------------------------------------
:version 1.10
:name VICON
:units
  mass 1.0
  length 0.45
  angle deg
:documentation
   .ast/.asf automatically generated from VICON data using
   VICON BodyBuilder and BodyLanguage model FoxedUp or BRILLIANT.MOD
:root
   order TX TY TZ RX RY RZ
   axis XYZ
   position 0 0 0  
   orientation 0 0 0 
:bonedata
  begin
     id 1 
     name lhipjoint
     direction 0.577973 -0.728611 0.367523 
     length 2.48544 
     axis 0 0 0  XYZ
  end
  begin
     id 2 
     name lfemur
     direction 0.34202 -0.939693 0  
     length 7.1921  
     axis 0 0 20  XYZ
    dof rx ry rz
    limits (-160.0 20.0)
           (-70.0 70.0)
           (-60.0 70.0)
  end
  begin
     id 3 
     name ltibia
     direction 0.34202 -0.939693 0   
     length 7.71059   
     axis 0 0 20   XYZ
    dof rx
    limits (-10.0 170.0)
  end
  begin
     id 4 
     name lfoot
     direction 0.089538 -0.246004 0.965124   
     length 2.19909   
     axis -90 7.62852e-016 20   XYZ
    dof rx rz
    limits (-45.0 90.0)
           (-70.0 20.0)
  end
  begin
     id 5 
     name ltoes
     direction 1.53544e-011 -4.21829e-011 1   
     length 1.10116   
     axis -90 7.62852e-016 20   XYZ
    dof rx
    limits (-90.0 20.0)
  end
  begin
     id 6 
     name rhipjoint
     direction -0.554414 -0.743062 0.374812   
     length 2.4371  
     axis 0 0 0  XYZ 
  end
  begin
     id 7 
     name rfemur
     direction -0.34202 -0.939693 0   
     length 7.47254   
     axis 0 0 -20   XYZ
    dof rx ry rz
    limits (-160.0 20.0)
           (-70.0 70.0)
           (-70.0 60.0)
  end
  begin
     id 8 
     name rtibia
     direction -0.34202 -0.939693 0   
     length 7.65855   
     axis 0 0 -20   XYZ
    dof rx
    limits (-10.0 170.0)
 end
 begin
     id 9 
     name rfoot
     direction -0.133779 -0.367555 0.92033   
     length 2.43006  
     axis -90 -7.62852e-016 -20   XYZ
    dof rx rz
    limits (-45.0 90.0)
           (-20.0 70.0)
  end
  begin
     id 10 
     name rtoes
     direction -1.53563e-011 -4.21889e-011 1   
     length 1.19625   
     axis -90 -7.62852e-016 -20   XYZ
    dof rx
    limits (-90.0 20.0)
  end
  begin
     id 11 
     name lowerback
     direction 0.0249066 0.998043 -0.0573585   
     length 2.08485   
     axis 0 0 0   XYZ
    dof rx ry rz
    limits (-20.0 45.0)
           (-30.0 30.0)
           (-30.0 30.0)
  end
  begin
     id 12 
     name upperback
     direction 0.0237884 0.999673 0.00943178   
     length 2.08515   
     axis 0 0 0   XYZ
    dof rx ry rz
    limits (-20.0 45.0)
           (-30.0 30.0)
           (-30.0 30.0)
  end
  begin
     id 13 
     name thorax
     direction 0.0106671 0.999301 0.0358174   
     length 2.09037   
     axis 0 0 0   XYZ
    dof rx ry rz
    limits (-20.0 45.0)
           (-30.0 30.0)
           (-30.0 30.0)
  end
  begin
     id 14 
     name lowerneck
     direction -0.0580016 0.987052 0.149546   
     length 1.84454   
     axis 0 0 0   XYZ
    dof rx ry rz
    limits (-20.0 45.0)
           (-30.0 30.0)
           (-30.0 30.0)
  end
  begin
     id 15 
     name upperneck
     direction 0.079456 0.981963 -0.171567   
     length 1.88141   
     axis 0 0 0   XYZ
    dof rx ry rz
    limits (-20.0 45.0)
           (-30.0 30.0)
           (-30.0 30.0)
  end
  begin
     id 16
     name head
     direction 0.0262167 0.9967 -0.0768276  
     length 1.89541  
     axis 0 0 0   XYZ
    dof rx ry rz
    limits (-20.0 45.0)
           (-30.0 30.0)
           (-30.0 30.0)
  end
  begin
     id 17 
     name lclavicle
     direction 0.946135 0.322134 -0.0325326  
     length 3.949  
     axis 0 0 0   XYZ
    dof ry rz
    limits (-20.0 10.0)
           (0.0 20.0)
  end
  begin
     id 18 
     name lhumerus
     direction 1 -4.48964e-011 1.94005e-028   
     length 5.10995   
     axis 180 -30 -90   XYZ
    dof rx ry rz
    limits (-60.0 90.0)
           (-90.0 90.0)
           (-90.0 90.0)
  end
  begin
     id 19
     name lradius
     direction 1 -4.48976e-011 2.87852e-027   
     length 3.21207   
     axis 180 -30 -90   XYZ
    dof rx
    limits (-10.0 170.0)
  end
  begin
     id 20
     name lwrist
     direction 1 -4.48963e-011 1.9975e-027   
     length 1.60604   
     axis 2.96054e-016 90 90   XYZ
    dof ry
    limits (-180.0 0.0)
 end
  begin
     id 21 
     name lhand
     direction 1 -4.48919e-011 4.00227e-027   
     length 0.63349   
     axis -2.5488e-015 90 90   XYZ
    dof rx rz
    limits (-90.0 90.0)
           (-45.0 45.0)
  end
  begin
     id 22 
     name lfingers
     direction 1 -4.49037e-011 7.9652e-027   
     length 0.510736   
     axis -5.0975e-015 90 90   XYZ
    dof rx
    limits (0.0 90.0)
  end
  begin
     id 23
     name lthumb
     direction 0.707107 -6.34922e-011 0.707107   
     length 0.733318   
     axis -90 45 -4.48553e-014   XYZ
    dof rx rz
    limits (-45.0 45.0)
           (-45.0 45.0)
  end
  begin
     id 24 
     name rclavicle
     direction -0.940085 0.328911 -0.0897654   
     length 3.93848  
     axis 0 0 0   XYZ 
    dof ry rz
    limits (-10.0 20.0)
           (-20.0 0.0)
  end
  begin
     id 25 
     name rhumerus
     direction -1 -4.48958e-011 3.02044e-027  
     length 5.25109   
     axis 180 30 90   XYZ
    dof rx ry rz
    limits (-90.0 60.0)
           (-90.0 90.0)
           (-90.0 90.0)
  end
  begin
     id 26 
     name rradius
     direction -1 -4.4897e-011 9.78352e-028   
     length 3.28364   
     axis 180 30 90   XYZ
    dof rx
    limits (-10.0 170.0)
  end
  begin
     id 27 
     name rwrist
     direction -1 -4.48943e-011 1.99918e-027   
     length 1.64182   
     axis 2.96054e-016 -90 -90   XYZ
    dof ry
    limits (-180.0 0.0)
  end
  begin
     id 28
     name rhand
     direction -1 -4.49024e-011 3.98478e-027   
     length 0.599745   
     axis -2.5488e-015 -90 -90   XYZ
    dof rx rz
    limits (-90.0 90.0)
           (-45.0 45.0)
  end
  begin
     id 29
     name rfingers
     direction -1 -4.48914e-011 8.00621e-027   
     length 0.48353   
     axis -5.0975e-015 -90 -90   XYZ
    dof rx
    limits (0.0 90.0)
  end
  begin
     id 30
     name rthumb
     direction -0.707107 -6.34992e-011 0.707107   
     length 0.694255   
     axis -90 -45 4.48553e-014   XYZ
    dof rx rz
    limits (-45.0 45.0)
           (-45.0 45.0)
  end
:hierarchy
  begin
    root lhipjoint rhipjoint lowerback
    lhipjoint lfemur
    lfemur ltibia
    ltibia lfoot
    lfoot ltoes
    rhipjoint rfemur
    rfemur rtibia
    rtibia rfoot
    rfoot rtoes
    lowerback upperback
    upperback thorax
    thorax lowerneck lclavicle rclavicle
    lowerneck upperneck
    upperneck head
    lclavicle lhumerus
    lhumerus lradius
    lradius lwrist
    lwrist lhand lthumb
    lhand lfingers
    rclavicle rhumerus
    rhumerus rradius
    rradius rwrist
    rwrist rhand rthumb
    rhand rfingers
  end

#!OML:ASF E:\CV Data\Top Level 1\Subject 1\Session 1\player.ASF
:FULLY-SPECIFIED
:DEGREES
151
root 2.70352 17.8096 -24.4738 7.80239 2.3846 -4.43871
lowerback 6.2471 1.5337 2.73546
upperback -0.280744 2.32356 1.98943
thorax -3.76858 1.1194 0.30323
lowerneck -16.1592 -7.45345 -12.2646
upperneck 29.677 -8.66058 4.98152
head 13.5221 -4.52221 2.58688
rclavicle 1.18277e-014 -3.57812e-015
rhumerus -19.5663 -3.85275 -81.6736
rradius 96.9093
rwrist 0.359874
rhand -30.3255 1.71631
rfingers 7.12502
rthumb -3.63178 -28.2325
lclavicle 1.18277e-014 -3.57812e-015
lhumerus -33.936 4.64528 82.431
lradius 66.9978
lwrist 16.2434
lhand -17.2617 13.2241
lfingers 7.12502
lthumb 8.98286 43.0129
rfemur -15.1321 -0.608305 20.2616
rtibia 27.7081
rfoot -16.7859 -18.5565
rtoes 2.39561
lfemur -16.692 2.12348 -17.5015
ltibia 26.5359
lfoot -12.2429 3.91369
ltoes 1.74177
152
root 2.71064 17.8081 -24.4794 7.76671 2.45155 -4.48352
lowerback 6.23466 1.5816 2.64594
upperback -0.24086 2.37814 1.97068
thorax -3.72223 1.14881 0.329829
lowerneck -16.1487 -7.39295 -12.2525
upperneck 30.0224 -8.55229 4.87063
head 13.6498 -4.49152 2.56391
rclavicle -5.26779e-015 -4.96962e-015
rhumerus -19.4394 -3.03094 -82.8548
rradius 92.9369
rwrist 1.44789
rhand -31.9974 3.69486
rfingers 7.12502
rthumb -5.24621 -26.2202
lclavicle -5.26779e-015 -4.96962e-015
lhumerus -33.5256 4.28669 82.8336
lradius 66.5764
lwrist 15.8852
lhand -17.4328 13.0781
lfingers 7.12502
lthumb 8.8177 42.8739
rfemur -15.12 -0.667579 20.2893
rtibia 27.7191
rfoot -16.7638 -18.5603
rtoes 2.40625
lfemur -16.709 2.18233 -17.4886
ltibia 26.5783
lfoot -12.272 3.8593
ltoes 1.79072
153
root 2.71806 17.8065 -24.4843 7.72637 2.48412 -4.52965
lowerback 6.23347 1.64317 2.56159
upperback -0.211129 2.45176 1.94125
thorax -3.69199 1.18719 0.340339
lowerneck -16.1307 -7.33077 -12.2287
upperneck 30.3773 -8.44606 4.76098
head 13.7809 -4.46079 2.53934
rclavicle 3.8763e-014 4.07509e-014
rhumerus -19.193 -2.23753 -83.9253
rradius 88.6387
rwrist 2.61954
rhand -33.1366 5.2535
rfingers 7.12502
rthumb -6.3461 -24.6314
lclavicle 3.8763e-014 4.07509e-014
lhumerus -33.1185 3.89197 83.2332
lradius 66.1249
lwrist 15.5519
lhand -17.5878 12.9522
lfingers 7.12502
lthumb 8.66818 42.7542
rfemur -15.1066 -0.738641 20.3142
rtibia 27.7355
rfoot -16.7413 -18.522
rtoes 2.40395
lfemur -16.7103 2.2155 -17.4749
ltibia 26.622
lfoot -12.2974 3.85792
ltoes 1.85701
154
root 2.72541 17.8047 -24.4894 7.68887 2.50758 -4.57512
lowerback 6.22285 1.7086 2.47521
upperback -0.178644 2.52973 1.90612
thorax -3.65351 1.22779 0.346098
lowerneck -16.1139 -7.26666 -12.1957
upperneck 30.7232 -8.34107 4.65949
head 13.9094 -4.4286 2.51612
rclavicle -8.34896e-015 -1.25234e-014
rhumerus -18.8042 -1.4618 -84.8768
rradius 84.077
rwrist 3.94192
rhand -33.7164 6.30234
rfingers 7.12502
rthumb -6.90582 -23.565
lclavicle -8.34896e-015 -1.25234e-014
lhumerus -32.6882 3.46139 83.6318
lradius 65.6346
lwrist 15.2394
lhand -17.7203 12.8262
lfingers 7.12502
lthumb 8.54026 42.6335
rfemur -15.1018 -0.807247 20.3378
rtibia 27.7577
rfoot -16.72 -18.4794
rtoes 2.39765
lfemur -16.7161 2.25984 -17.4618
ltibia 26.6683
lfoot -12.3216 3.84783
ltoes 1.92578
155
root 2.73253 17.8029 -24.4954 7.65726 2.53755 -4.61563
lowerback 6.20376 1.77095 2.38297
upperback -0.137875 2.60249 1.86638
thorax -3.60192 1.266 0.351365
lowerneck -16.1187 -7.20239 -12.154
upperneck 31.0618 -8.23658 4.56441
head 14.0406 -4.39451 2.4932
rclavicle -3.75455e-014 -1.78906e-014
rhumerus -18.2612 -0.70387 -85.7096
rradius 79.3267
rwrist 5.46698
rhand -33.7794 6.84237
rfingers 7.12502
rthumb -6.96662 -23.023
lclavicle -3.75455e-014 -1.78906e-014
lhumerus -32.2185 3.00612 84.0265
lradius 65.1053
lwrist 14.9358
lhand -17.8151 12.7044
lfingers 7.12502
lthumb 8.44875 42.5154
rfemur -15.1087 -0.885217 20.3574
rtibia 27.7884
rfoot -16.7054 -18.4331
rtoes 2.3942
lfemur -16.7353 2.30814 -17.4523
ltibia 26.7193
lfoot -12.3474 3.81995
ltoes 1.99229
156
root 2.73969 17.8011 -24.5027 7.63254 2.59543 -4.644
lowerback 6.16341 1.82243 2.28991
upperback -0.0635709 2.65851 1.81489
thorax -3.5034 1.29637 0.347966
lowerneck -16.2098 -7.14475 -12.0846
upperneck 31.3916 -8.13913 4.47293
head 14.1872 -4.35818 2.46329
rclavicle 7.42958e-015 1.64991e-014
rhumerus -17.5067 0.00754699 -86.4408
rradius 74.4575
rwrist 7.18543
rhand -33.3304 6.98888
rfingers 7.12502
rthumb -6.53316 -22.8903
lclavicle 7.42958e-015 1.64991e-014
lhumerus -31.6498 2.53094 84.4077
lradius 64.5259
lwrist 14.6462
lhand -17.8634 12.5608
lfingers 7.12502
lthumb 8.40215 42.3737
rfemur -15.1279 -0.983389 20.3665
rtibia 27.8293
rfoot -16.7021 -18.393
rtoes 2.40934
lfemur -16.7759 2.35955 -17.4546
ltibia 26.7764
lfoot -12.3755 3.75496
ltoes 2.04254
157
root 2.74647 17.7992 -24.5111 7.61302 2.65828 -4.66405
lowerback 6.13095 1.86504 2.18018
upperback 0.00468241 2.70225 1.76313
thorax -3.41657 1.3207 0.354452
lowerneck -16.2945 -7.07664 -12.0137
upperneck 31.7136 -8.02866 4.3871
head 14.3291 -4.31561 2.43796
rclavicle 8.29926e-015 -1.0635e-014
rhumerus -16.641 0.698477 -87.0717
rradius 69.5973
rwrist 9.02312
rhand -32.4829 6.76249
rfingers 7.12502
rthumb -5.71496 -23.1404
lclavicle 8.29926e-015 -1.0635e-014
lhumerus -31.0787 2.04575 84.7762
lradius 63.923
lwrist 14.3461
lhand -17.883 12.4153
lfingers 7.12502
lthumb 8.38324 42.2289
rfemur -15.158 -1.08425 20.3685
rtibia 27.8806
rfoot -16.7102 -18.3515
rtoes 2.44259
lfemur -16.8322 2.44473 -17.4659
ltibia 26.8382
lfoot -12.4104 3.64556
ltoes 2.08515
158
root 2.75305 17.7971 -24.5203 7.59398 2.72064 -4.6744
lowerback 6.10145 1.90204 2.05912
upperback 0.0666879 2.7381 1.70672
thorax -3.33835 1.34104 0.363054
lowerneck -16.3505 -6.99754 -11.9398
upperneck 32.0233 -7.90846 4.30899
head 14.4597 -4.26805 2.41781
rclavicle -4.24405e-014 -1.92821e-014
rhumerus -15.686 1.34239 -87.6264
rradius 64.849
rwrist 10.8856
rhand -31.177 6.20748
rfingers 7.12502
rthumb -4.45404 -23.7257
lclavicle -4.24405e-014 -1.92821e-014
lhumerus -30.5124 1.54527 85.1294
lradius 63.3039
lwrist 14.044
lhand -17.8976 12.2774
lfingers 7.12502
lthumb 8.36914 42.0916
rfemur -15.1953 -1.18995 20.3606
rtibia 27.942
rfoot -16.7228 -18.3074
rtoes 2.47275
lfemur -16.8951 2.5584 -17.4881
ltibia 26.9033
lfoot -12.4541 3.50397
ltoes 2.12408
159
root 2.75974 17.7948 -24.5294 7.56589 2.75762 -4.67876
lowerback 6.11358 1.94263 1.93303
upperback 0.103069 2.78046 1.64505
thorax -3.31005 1.36401 0.366515
lowerneck -16.3697 -6.90792 -11.8672
upperneck 32.3422 -7.77694 4.23098
head 14.5865 -4.2168 2.40116
rclavicle 8.82107e-016 6.55989e-015
rhumerus -14.7266 1.94988 -88.1215
rradius 60.3365
rwrist 12.6371
rhand -29.2943 5.25605
rfingers 7.12502
rthumb -2.63597 -24.7074
lclavicle 8.82107e-016 6.55989e-015
lhumerus -29.9877 1.02822 85.4688
lradius 62.6764
lwrist 13.7335
lhand -17.9301 12.1656
lfingers 7.12502
lthumb 8.33776 41.981
rfemur -15.2291 -1.29521 20.3433
rtibia 28.0104
rfoot -16.7353 -18.2436
rtoes 2.49415
lfemur -16.943 2.69199 -17.5187
ltibia 26.9677
lfoot -12.5023 3.36251
ltoes 2.17161
160
root 2.76702 17.7919 -24.5372 7.51443 2.73835 -4.6811
lowerback 6.15057 2.0028 1.80957
upperback 0.120587 2.8501 1.57559
thorax -3.31463 1.40004 0.356777
lowerneck -16.3154 -6.81039 -11.7951
upperneck 32.6613 -7.64245 4.15297
head 14.6979 -4.16578 2.3871
rclavicle -1.90895e-014 1.77415e-014
rhumerus -13.8301 2.52555 -88.5698
rradius 56.1607
rwrist 14.1532
rhand -26.5734 3.79949
rfingers 7.12502
rthumb -0.0080769 -26.1802
lclavicle -1.90895e-014 1.77415e-014
lhumerus -29.5147 0.47269 85.8013
lradius 62.0471
lwrist 13.4281
lhand -18.0045 12.0846
lfingers 7.12502
lthumb 8.26599 41.9029
rfemur -15.2425 -1.38852 20.316
rtibia 28.0843
rfoot -16.7445 -18.1451
rtoes 2.50288
lfemur -16.9491 2.85548 -17.5565
ltibia 27.0299
lfoot -12.5577 3.24499
ltoes 2.22592
161
root 2.77503 17.7889 -24.5437 7.44452 2.66613 -4.68204
lowerback 6.2073 2.08714 1.69613
upperback 0.133558 2.95288 1.49787
thorax -3.33403 1.45215 0.329074
lowerneck -16.2482 -6.71659 -11.7151
upperneck 32.9978 -7.51234 4.06128
head 14.8151 -4.11798 2.36562
rclavicle 8.08495e-015 -1.34428e-014
rhumerus -13.0171 3.09039 -88.9775
rradius 52.3819
rwrist 15.2986
rhand -22.6939 1.76348
rfingers 7.12502
rthumb 3.73865 -28.1835
lclavicle 8.08495e-015 -1.34428e-014
lhumerus -29.0488 -0.116637 86.134
lradius 61.4088
lwrist 13.1166
lhand -18.122 12.0591
lfingers 7.12502
lthumb 8.15256 41.8819
rfemur -15.2405 -1.48292 20.28
rtibia 28.1637
rfoot -16.7527 -18.0029
rtoes 2.49401
lfemur -16.9166 3.0002 -17.5983
ltibia 27.0898
lfoot -12.6114 3.19609
ltoes 2.27313
162
root 2.78371 17.7854 -24.5498 7.36918 2.57036 -4.67866
lowerback 6.27338 2.19081 1.59467
upperback 0.148043 3.08192 1.41008
thorax -3.3559 1.51699 0.281471
lowerneck -16.2014 -6.63367 -11.6179
upperneck 33.3546 -7.3961 3.95656
head 14.9475 -4.07556 2.33266
rclavicle -4.5986e-014 -2.68608e-014
rhumerus -12.321 3.66784 -89.3501
rradius 49.0286
rwrist 15.9246
rhand -17.5553 -0.613069
rfingers 7.12502
rthumb 8.69948 -30.4138
lclavicle -4.5986e-014 -2.68608e-014
lhumerus -28.5653 -0.762479 86.468
lradius 60.7591
lwrist 12.8077
lhand -18.3632 12.1569
lfingers 7.12502
lthumb 7.91981 41.9885
rfemur -15.2392 -1.5802 20.2355
rtibia 28.2509
rfoot -16.7579 -17.8444
rtoes 2.47947
lfemur -16.8717 3.14462 -17.6479
ltibia 27.1502
lfoot -12.6635 3.17
ltoes 2.30892
163
root 2.79253 17.7817 -24.5564 7.30222 2.47528 -4.67179
lowerback 6.33704 2.3086 1.4965
upperback 0.169118 3.22949 1.3196
thorax -3.3692 1.59105 0.227654
lowerneck -16.1905 -6.56769 -11.508
upperneck 33.7258 -7.29901 3.83887
head 15.0974 -4.04089 2.28747
rclavicle 2.43387e-014 2.34566e-014
rhumerus -11.7607 4.26756 -89.6854
rradius 46.0919
rwrist 15.9482
rhand -11.2445 -3.20145
rfingers 7.12502
rthumb 14.7849 -32.6541
lclavicle 2.43387e-014 2.34566e-014
lhumerus -28.0422 -1.46465 86.8094
lradius 60.0976
lwrist 12.4911
lhand -18.7577 12.4336
lfingers 7.12502
lthumb 7.53904 42.2793
rfemur -15.2546 -1.68993 20.1883
rtibia 28.3502
rfoot -16.7691 -17.6792
rtoes 2.46507
lfemur -16.8399 3.28993 -17.7016
ltibia 27.2135
lfoot -12.7135 3.13965
ltoes 2.33765
164
root 2.80187 17.7779 -24.5637 7.24735 2.40819 -4.6538
lowerback 6.37451 2.43195 1.40314
upperback 0.231841 3.38283 1.2217
thorax -3.32399 1.66839 0.165128
lowerneck -16.3014 -6.52747 -11.3687
upperneck 34.1043 -7.22929 3.70968
head 15.2812 -4.01355 2.22387
rclavicle -2.17421e-015 3.32964e-015
rhumerus -11.2878 4.8717 -89.9904
rradius 43.5196
rwrist 15.3915
rhand -4.18341 -5.73488
rfingers 7.12502
rthumb 21.5778 -34.5528
lclavicle -2.17421e-015 3.32964e-015
lhumerus -27.3968 -2.2113 87.1431
lradius 59.4049
lwrist 12.1487
lhand -19.3053 12.9077
lfingers 7.12502
lthumb 7.01044 42.7716
rfemur -15.2912 -1.83269 20.1311
rtibia 28.4668
rfoot -16.7876 -17.5136
rtoes 2.45385
lfemur -16.8317 3.41567 -17.7673
ltibia 27.2829
lfoot -12.7595 3.09698
ltoes 2.36837
165
root 2.81113 17.774 -24.5718 7.21251 2.36508 -4.6263
lowerback 6.39572 2.56032 1.29974
upperback 0.304872 3.54165 1.12536
thorax -3.25962 1.74879 0.110457
lowerneck -16.4507 -6.50309 -11.2267
upperneck 34.4738 -7.17966 3.58393
head 15.4742 -3.99287 2.1559
rclavicle 1.2014e-014 8.15017e-015
rhumerus -10.9897 5.46743 -90.2677
rradius 41.3101
rwrist 14.3198
rhand 3.1853 -8.25396
rfingers 7.12502
rthumb 28.6376 -36.0795
lclavicle 1.2014e-014 8.15017e-015
lhumerus -26.6978 -2.98806 87.4682
lradius 58.6979
lwrist 11.7421
lhand -19.4057 13.242
lfingers 7.12502
lthumb 6.9135 43.1091
rfemur -15.3568 -2.0014 20.0672
rtibia 28.603
rfoot -16.8219 -17.3442
rtoes 2.46843
lfemur -16.8562 3.53681 -17.8424
ltibia 27.3574
lfoot -12.8008 3.02842
ltoes 2.40775
